<?xml version="1.0" standalone="no"?>
<!DOCTYPE svg PUBLIC "-//W3C//DTD SVG 1.1//EN" "http://www.w3.org/Graphics/SVG/1.1/DTD/svg11.dtd">
<svg xmlns="http://www.w3.org/2000/svg">
<metadata>Copyright (C) 2023 by original authors @ fontello.com</metadata>
<defs>
<font id="fontello" horiz-adv-x="1000" >
<font-face font-family="fontello" font-weight="400" font-stretch="normal" units-per-em="1000" ascent="850" descent="-150" />
<missing-glyph horiz-adv-x="1000" />
<glyph glyph-name="arrow-right" unicode="&#xe800;" d="M769 286c-4 0-7 0-10 0-227 0-453 0-680 0-21 0-40 6-53 22-17 21-21 44-10 68 11 24 30 37 57 38 3 1 5 0 8 0 227 0 453 0 679 0 2 0 5 0 9 0-3 4-5 5-6 7-61 62-123 123-184 184-19 19-27 42-18 68 14 45 68 60 103 29 2-2 5-4 7-6 99-99 198-198 297-297 30-30 30-68-1-98-99-100-198-199-298-299-28-28-71-27-96 2-22 26-21 63 4 88 24 25 49 49 73 74 38 37 75 75 113 113 2 1 3 3 6 7z" horiz-adv-x="1000" />

<glyph glyph-name="arrow-left" unicode="&#xe801;" d="M234 456c5 0 8 0 11 0 227 0 453 0 680 0 21 0 39-6 53-22 17-21 20-44 10-68-11-24-30-37-57-38-3-1-6-1-9-1-226 0-452 0-678 0-2 0-5 0-9 0 3-3 4-5 6-6 61-62 122-123 184-184 19-19 27-42 18-69-14-44-68-59-103-28-2 2-5 4-7 6-99 99-198 198-297 297-30 30-30 68 1 98 99 100 198 199 298 299 28 28 71 27 96-2 22-26 21-63-4-88-24-25-49-49-73-74-38-37-75-75-113-113-2-2-3-3-7-7z" horiz-adv-x="1000" />

<glyph glyph-name="user" unicode="&#xe802;" d="M502 392c-97 0-175 79-175 175h-85c0-143 117-260 260-260v85z m-175 175c0 97 79 177 175 177v85c-144 0-260-119-260-262h85z m175 177c96 0 175-79 175-176h85c0 144-117 260-260 260v-84z m175-175c0-97-79-177-175-177v-85c143 0 260 119 260 262h-85z m164-614h-679v-85h679v85z m-679 0c-3 0-6 3-6 6h-85c0-50 41-91 91-91v85z m-6 6v49h-85v-49h85z m0 49c0 83 68 151 152 151v85c-131 0-237-106-237-236h85z m152 151h388v85h-388v-85z m388 0c83 0 151-68 151-151h85c0 130-106 236-236 236v-85z m151-151v-49h85v49h-85z m0-49c0-3-2-6-6-6v-85c51 0 91 41 91 91h-85z" horiz-adv-x="1000" />

<glyph glyph-name="account" unicode="&#xe803;" d="M152 536c-75 0-137 62-137 137 0 76 61 137 137 137 76 0 137-61 137-137 0-75-61-137-137-137z m0 76c31-3 63 27 62 61 0 35-27 62-62 62-34 0-62-27-62-61 0-35 27-62 62-62z m137-287c0-75-61-136-135-136-78 0-139 60-139 136 0 76 62 137 137 137 76 0 137-61 137-137z m-199 0c0-34 28-62 63-62 34 0 61 28 61 63 0 34-28 62-62 61-34 0-62-28-62-62z m607 385c-83 0-166 0-248 0-23 0-40-22-35-44 4-19 19-31 41-31 162 0 325 0 488 0 4 0 8 1 11 2 14 2 24 11 29 24 4 14 2 27-8 38-9 9-20 12-32 12-82 0-164 0-246 0 0 0 0-1 0-1z m2-422c80 0 161 0 242 0 3 0 7 0 10 0 20 2 36 21 34 41-3 20-18 34-39 34-165 0-329 0-494 0-1 0-2 0-4 0-20-1-35-18-35-39 0-20 16-36 37-36 83 0 166 0 248 0 1 0 1 0 1 0z m0-274c-83 0-167 0-250 0-23 0-40-22-35-45 4-18 19-29 40-29 163 0 327 0 490 0 2 0 4 0 5 0 23 1 39 21 35 43-3 19-18 31-39 31-82 1-164 0-246 0 0 0 0 0 0 0z m-569-30c-18 15-34 31-52 46-9 8-20 11-32 8-14-3-24-12-28-26-5-15 0-28 11-39 27-24 54-49 81-73 16-14 36-14 51 0 55 49 110 99 165 148 16 15 17 38 3 53-13 16-37 17-53 3-33-29-66-59-98-88-14-13-28-25-42-38-3 2-5 4-6 6z" horiz-adv-x="1000" />

<glyph glyph-name="company-info" unicode="&#xe804;" d="M490 356c-17 14-26 32-20 54 4 17 15 28 30 36 29 13 58 28 87 41 9 5 12 11 12 21 0 32 0 64 0 96 0 31 23 53 53 51 8 0 15-2 22-6 31-16 62-33 92-50 17-10 26-24 26-44 1-48 1-96 1-145 0-15-7-27-17-37 15-14 17-31 17-50-1-83-1-166 0-249 0-25-11-42-32-54-91-48-181-96-271-144-11-5-21-12-32-15-33-7-62 17-62 52 0 34 0 68 0 102 0 52 0 103 0 154 0 22 9 39 29 50 48 26 96 52 144 79 4 2 7 4 12 6-31 18-61 35-91 52 1 0 0 0 0 0z m268-155c0 44 0 88 0 131 0 16-12 23-25 16-97-53-194-106-292-159-7-4-11-10-11-19 0-86 0-171 0-257 0-16 13-23 27-16 96 52 193 103 289 155 9 4 12 10 12 20 0 43 0 86 0 129z m0 282c0 23 0 46 0 70 0 7-2 12-9 16-31 17-62 34-93 51-2 1-6 1-9 1-8-1-14-7-14-18 0-31 0-62 0-93 1-26-10-44-34-55-29-13-57-27-85-41-6-3-11-7-12-15 0-8 5-13 11-16 31-18 62-36 93-54 7-4 13-4 20 0 40 22 80 44 121 66 8 4 11 11 11 20 0 23 0 45 0 68z m-268-127c0 0 1 0 0 0 2-2 3-3 5-5 25-24 21-64-10-82-34-19-68-39-102-58-12-6-16-14-16-27 1-16 1-32 0-49 0-41-39-65-76-45-19 10-38 20-57 31-17 9-26 25-26 44 0 50 0 101 0 151 0 15 5 28 16 38-14 14-16 31-16 49 0 79 0 159 0 238-1 24 10 41 31 53 87 46 174 93 261 140 29 15 63 2 73-28 2-7 3-14 3-22 1-72 2-144 3-216 0-14 1-28 1-42 0-23-10-39-31-49-47-23-94-46-141-69-1-1-3-2-6-3 11-7 21-12 32-18 16-9 33-19 50-28 2-1 4-2 6-3z m55 299c-1 0-2 0-3 0 0 44 0 87 0 131 0 18-12 25-28 16-23-12-46-25-69-37-64-34-128-69-193-103-7-4-10-10-10-18 0-84 0-167 0-250 0-16 12-23 25-16 15 7 30 14 45 21 73 36 146 71 220 107 10 5 14 11 14 22-1 43-1 85-1 127z m-303-414c0-25 0-49 0-73 0-9 3-15 11-19 18-10 36-20 54-29 14-8 26 0 26 16 0 18 0 37 0 56 1 18 8 33 24 43 4 3 8 5 12 8 33 18 65 36 97 55 7 3 11 8 11 16 0 7-4 12-11 15-30 17-61 34-92 52-7 4-13 4-20 0-33-16-66-32-99-48-10-4-13-11-13-20 0-24 0-48 0-72z" horiz-adv-x="1000" />

<glyph glyph-name="finance-info" unicode="&#xe805;" d="M177 575c11 0 21 0 31 0 25 0 43-18 43-42 1-24-17-43-42-43-49-1-98-1-147 0-24 0-42 19-42 44 0 47 0 95 0 143 0 25 18 44 43 44 23 0 42-19 43-44 0-14 0-29 0-43 0-3 0-5 0-9 2 3 3 4 4 5 74 101 171 167 294 190 180 34 335-18 458-155 61-68 98-148 112-239 4-25 5-50 6-74 1-25-18-44-41-44-25-1-44 17-44 43-2 69-17 135-53 195-63 107-156 175-279 193-157 23-284-31-381-157-2-1-3-3-5-7z m439-95c-16 26-39 42-68 50-3 0-6 2-7 5-8 18-21 28-41 28-19 0-32-10-40-28-1-2-4-3-6-4-8-3-17-5-25-8-44-19-68-62-64-111 4-44 38-81 83-93 28-7 56-14 84-21 12-3 19-13 18-25-1-10-10-18-23-19-14 0-29 0-44 0-12-1-21 4-28 14-14 20-40 25-59 12-20-13-25-38-12-59 16-26 39-43 68-50 4-1 7-2 8-6 7-17 22-27 40-27 18 0 33 9 40 26 1 4 3 6 7 7 51 9 88 52 89 104 0 49-32 92-80 106-30 8-59 15-89 22-12 3-18 13-16 25 1 11 11 19 22 19 17 0 33 0 50 0 7 0 13-3 18-8 2-3 4-6 6-9 12-15 30-20 48-14 17 6 28 22 30 42-3 7-5 15-9 22z m-421-388c-12 16-25 31-34 48-13 24-24 48-35 73-10 21-33 31-54 23-22-8-34-31-26-53 19-54 47-104 85-148 11-14 30-18 47-11 16 6 27 22 27 40 0 11-4 20-10 28z m271-181c2 21-13 40-36 45-45 8-88 23-128 46-8 5-16 7-26 6-19-2-34-15-38-33-4-19 4-37 22-48 34-20 71-35 110-46 18-4 35-8 49-11 27 0 45 17 47 41z m408 301c-16-45-40-85-70-122-15-18-12-45 6-59 19-15 45-13 60 5 10 12 19 24 28 37 24 33 42 69 56 108 10 29-10 58-40 58-18 0-33-10-40-27z m-293-342c57 10 111 29 162 59 20 12 26 37 15 57-12 21-37 29-58 17-40-23-83-39-129-47-24-5-38-22-37-43 0-26 23-47 47-43z" horiz-adv-x="1000" />

<glyph glyph-name="help" unicode="&#xe806;" d="M970 350c0-260-210-470-470-470-258 0-470 208-470 470 0 262 212 471 472 470 260-1 469-213 468-470z m-470 397c-220 0-398-178-397-399 1-219 178-395 397-395 222 0 394 179 397 391 3 221-174 403-397 403z m-22-168c-61-6-111-49-125-109-5-23 12-45 36-45 17 0 30 11 35 29 6 23 21 39 43 48 11 4 22 5 34 5 30 0 56-20 64-49 4-13 2-24-6-35-8-12-19-21-30-30-13-11-27-22-39-34-16-16-26-34-26-57 0-20 14-35 34-36 18-2 35 11 38 30 1 6 3 10 7 14 13 11 26 22 39 33 14 11 27 24 37 39 26 37 27 77 8 117-26 54-71 79-130 81-7-1-13-1-19-1z m65-409c0 23-20 42-42 42-24 0-43-19-43-43 0-23 19-42 42-42 24 0 43 19 43 43z" horiz-adv-x="1000" />

<glyph glyph-name="eye-outline" unicode="&#xe807;" d="M500 708c65-1 127-16 186-44 77-37 144-89 202-152 34-37 64-77 90-121 16-27 16-55 0-83-48-78-108-147-180-203-55-42-115-76-182-96-42-12-85-19-128-17-65 3-126 20-183 49-76 38-141 90-197 152-32 36-61 74-86 116-15 26-16 54 0 81 51 86 117 159 198 218 52 37 108 67 170 84 36 10 73 15 110 16z m-1-647c49 1 94 11 138 30 67 28 125 70 177 121 40 39 74 82 103 130 3 6 3 10 0 16-37 61-83 115-137 162-47 39-97 72-154 94-52 20-106 29-162 22-43-5-84-18-123-37-55-27-103-62-147-103-43-41-79-87-110-138-4-6-4-10 0-16 21-35 44-67 71-97 53-59 113-108 184-143 51-26 104-40 160-41z m4 461c60-2 112-25 150-76 52-70 39-167-28-223-74-61-179-60-252 2-77 66-77 185 1 251 37 31 79 45 129 46z m-9-277c39-1 71 12 94 34 42 42 40 107-5 146-22 19-47 29-76 30-39 2-73-10-99-40-31-33-35-78-12-115 25-38 60-54 98-55z" horiz-adv-x="1000" />

<glyph glyph-name="shopping-bag" unicode="&#xe808;" d="M548 86c-82 0-163-1-245 0-45 1-83 19-114 51-33 36-48 79-44 129 3 42 6 84 10 126 3 42 7 84 11 126 3 37 6 74 9 111 2 27 4 54 7 81 3 29-17 52-47 52-25 0-51 0-77 0-21 0-38 17-38 38 0 22 17 39 38 40 28 0 56 1 84-1 32-1 60-12 82-36 13-13 22-27 28-43 1-3 3-5 6-5 3 1 7 1 10 1 181 0 363 0 544-1 68 0 120-31 151-93 14-27 19-57 16-88-2-25-4-51-5-76-2-26-4-52-6-78-2-25-4-51-6-76-1-26-3-52-5-79-2-17-3-36-7-52-19-69-64-110-133-124-12-2-24-3-36-3-78 0-155 0-233 0 0 0 0 0 0 0z m-291 591c0-1 0-2 0-3-2-26-4-52-7-78-2-27-4-54-7-81-2-28-4-55-6-82-3-27-5-54-7-81-3-29-5-57-7-86-1-9-2-19 0-28 8-46 43-74 89-74 158 0 317 0 475 0 49 0 89 39 91 88 1 20 3 39 4 59 2 27 4 53 6 79 1 21 3 41 4 61 1 13 2 26 3 40-4 0-6 0-9 0-171 0-341 0-512 0-19 0-36 16-38 34-2 21 11 40 32 43 5 1 10 1 15 1 169 0 339 0 508 0 2 0 4 0 5 0 2 1 5 3 5 4 1 5 1 11 1 16 0 23-7 43-22 60-19 20-42 28-69 28-182 0-365 0-547 0-2 0-4 0-7 0z m445-817c-53 0-95 42-95 95 0 53 42 95 96 95 52 0 94-43 94-95 0-53-42-95-95-95z m-17 95c0-10 7-17 17-17 9 0 17 7 17 17 0 9-8 18-17 18-9 0-17-8-17-18z m-344-95c-49-2-96 41-95 96 0 52 43 93 93 95 50 1 98-38 97-96 0-61-51-97-95-95z m17 95c1 9-7 18-17 18-9 0-17-8-17-18-1-9 8-17 17-17 10 0 17 7 17 17z" horiz-adv-x="1000" />

<glyph glyph-name="note" unicode="&#xe809;" d="M905 337c0-88 0-176 0-264 0-32-5-62-19-91-14-27-35-45-65-49-20-3-38 2-56 9-24 10-44 27-62 46-4 4-8 8-13 11-15 10-31 10-43-3-10-9-18-19-26-30-12-15-23-32-36-46-22-26-50-40-84-40-36 0-65 14-87 41-18 21-33 43-49 64-9 11-20 21-35 21-14 0-24-8-32-17-17-18-34-33-56-43-15-8-31-13-48-14-34-1-59 15-76 44-14 22-19 47-22 72-1 12-1 24-1 36 0 166 0 331 0 496 0 37 3 73 12 109 17 69 61 110 131 123 33 6 65 8 98 8 112 0 223 0 335 0 35 0 70-3 104-11 66-16 104-59 119-124 9-41 11-82 11-124 0-74 0-149 0-224 0 0 0 0 0 0z m-735 4c0-46 0-91 0-137 0-42 0-84 0-126 0-19 1-38 8-55 7-19 13-21 29-10 14 9 28 20 41 32 26 25 56 38 93 35 32-3 57-18 77-42 16-19 30-39 45-59 4-6 10-12 16-17 14-11 28-11 42 0 6 5 11 11 16 17 15 19 29 39 44 58 26 31 59 46 100 43 28-3 50-15 70-34 10-9 21-18 31-26 6-5 13-9 20-12 7-4 11-2 15 4 3 5 6 10 7 16 3 17 6 34 6 52 0 153 0 306 0 459 0 23 0 46-1 70-1 26-4 51-13 76-8 23-23 39-47 47-22 8-45 11-68 12-31 1-62 1-92 1-93 0-187 0-280 0-28 0-55-1-82-8-18-5-35-11-48-26-11-12-16-26-19-42-9-32-10-65-10-98 0-77 0-153 0-230z m330 262c-16 0-32 0-48 0-42 0-84 1-126 0-22 0-39-20-36-41 3-20 18-33 39-33 114 0 228 0 342 0 1 0 3 0 4 0 24 1 41 25 34 48-5 16-18 26-35 26-58 1-116 0-174 0 0 0 0 0 0 0z m130-247c26 0 43 23 36 48-5 16-19 26-36 26-87 1-173 1-260 1 0 0-1 0-2-1-20-1-34-16-35-35-1-22 16-39 38-39 43 0 86 0 129 0 43 0 86 0 130 0z" horiz-adv-x="1000" />

<glyph glyph-name="heart" unicode="&#xe80a;" d="M717 785c-89 0-168-43-217-109-25 34-58 61-95 80-38 19-80 29-122 29-150 0-271-122-271-273 0-58 9-112 25-162 77-244 315-390 433-430 16-6 44-6 60 0 118 40 356 186 433 430 16 50 25 104 25 162 0 151-121 273-271 273z" horiz-adv-x="1000" />

<glyph glyph-name="arrow-up" unicode="&#xe80b;" d="M564 619c0-5 0-7 0-10 0-227 0-453 0-680 0-21-6-40-22-53-21-17-44-21-68-10-24 11-37 30-38 56-1 3 0 6 0 9 0 226 0 453 0 679 0 2 0 5 0 9-4-3-5-5-7-6-62-62-123-123-184-184-19-19-42-27-68-19-45 14-60 69-29 104 2 2 4 5 6 7 99 99 198 198 297 296 30 31 68 31 98 0 100-99 199-198 299-298 28-28 27-71-2-96-26-22-63-21-88 4-25 24-49 49-74 73-37 38-75 75-113 113-1 1-3 3-7 6z" horiz-adv-x="1000" />

<glyph glyph-name="open-bottom" unicode="&#xe80c;" d="M499 239c3 3 5 5 7 6 80 81 161 162 242 242 40 41 80 81 121 121 20 20 43 27 70 19 26-8 43-26 49-52 5-23-1-44-17-62-1-2-2-3-4-5-139-139-277-278-416-416-27-27-66-29-94-7-3 2-6 5-8 7-139 139-277 277-416 416-26 27-30 64-9 93 25 33 71 39 103 11 2-2 5-5 7-7 120-119 240-239 359-358 2-3 4-5 6-8z" horiz-adv-x="1000" />

<glyph glyph-name="scan-code" unicode="&#xe80d;" d="M699 820c20-1 44 1 68-2 95-10 176-82 197-174 4-18 6-36 6-54 0-35 0-71 0-106 0-17-8-29-22-34-22-8-44 8-44 33 0 35 0 71 0 106 0 79-53 145-130 161-11 3-23 4-35 4-36 0-72 0-107 0-24 0-39 22-32 44 5 13 16 22 32 22 21 0 42 0 67 0z m-328-940c16 1 30 14 31 30 1 21-14 36-36 36-37 1-74 1-110 0-8 0-16 1-24 3-81 15-136 81-136 163 0 35 0 70 0 104 0 21-13 36-33 36-19 0-33-14-33-35 0-34 0-68 0-102 0-18 2-35 5-52 18-90 95-165 186-179 27-5 54-4 82-4 22 0 45 0 68 0z m-340 597c2-20 22-33 41-27 15 4 24 16 24 34 0 36 0 72 0 108 0 20 4 39 11 57 24 62 83 104 150 105 38 0 75 0 112 0 18 0 33 15 33 33 0 18-14 33-32 33-38 0-75 0-113 0-14 0-29-2-43-4-91-17-166-95-181-187-4-27-3-55-3-85 1-21-1-44 1-67z m757-592c90 18 165 96 179 187 5 35 3 70 3 105-1 19-16 32-34 31-18 0-32-14-32-33 0-10 0-21 0-31-1-22 1-44-3-65-13-74-82-132-157-133-21 0-43 0-65 0-7 0-14-1-21-4-13-8-19-23-15-37 3-15 16-24 32-25 14 0 28 0 45 0 21 0 45 1 68 5z" horiz-adv-x="1000" />

<glyph glyph-name="dot-circle" unicode="&#xe80e;" d="M500-120c-251-2-471 204-470 471 1 265 217 467 467 469 257 2 474-207 473-471 0-268-222-471-470-469z m0 66c221 0 404 182 404 401 0 224-181 407-404 407-220 0-404-182-404-402 0-224 181-406 404-406z m176 448c-25 0-45-20-45-44 0-25 19-44 44-44 25-1 46 22 43 44 1 25-18 44-42 44z m-306-44c-1 24-21 44-45 44-24 0-44-20-44-44 0-25 20-44 44-44 25 0 45 20 45 44z m130 44c-24 0-44-19-44-44 0-25 19-44 44-44 25 0 44 19 44 43 0 25-19 45-44 45z" horiz-adv-x="1000" />

<glyph glyph-name="exchange" unicode="&#xe80f;" d="M852 151c-3 1-6 1-8 1-263 0-526 0-789 0-16 0-30 4-39 18-16 25 0 58 30 61 3 1 6 1 9 1 296 0 592 0 888 0 11 0 22-1 31-8 19-16 21-43 4-60-15-16-30-31-45-46-73-73-146-146-219-219-16-17-41-17-58-1-16 16-15 41 2 58 33 34 67 67 101 101 30 30 59 60 89 89 1 2 3 3 4 5z m-698 405c62 62 124 124 186 186 2 2 3 3 5 5 20 23 10 58-20 65-16 5-30-1-41-13-59-59-118-118-177-178-28-28-57-56-85-84-15-16-16-37-2-54 9-12 21-15 35-15 294 0 588 0 882 0 5 0 9 0 14 1 17 0 29 8 36 23 6 16 4 31-8 43-9 11-21 13-34 13-263 0-526 0-790 0-2 0-4 0-8 2 3 2 5 4 7 6z" horiz-adv-x="1000" />

<glyph glyph-name="notification" unicode="&#xe810;" d="M807 533c0 169-136 306-305 306s-306-137-306-306v-306l-184-122v-62h979v62l-184 122v306z m-183-551h-245c0-67 55-122 123-122 67 0 122 55 122 122z" horiz-adv-x="1000" />

<glyph glyph-name="shopping-cart" unicode="&#xe811;" d="M719-130c21 0 41 8 56 23 15 15 23 35 23 56 0 21-8 41-23 56-15 15-35 23-56 23-21 0-41-8-56-23-15-15-23-35-23-56 0-21 8-41 23-56 15-15 35-23 56-23z m-361 0c21 0 41 8 55 23s24 35 24 56c0 21-9 41-24 56s-34 23-55 23c-21 0-42-8-56-23-15-15-24-35-24-56 0-21 9-41 24-56 14-15 35-23 56-23z m-155 839l-9-111c-1-21 15-39 37-39h691c19 0 35 14 36 33 6 80-55 145-135 145h-555c-4 20-14 39-28 55-22 24-54 38-86 38h-79c-18 0-34-15-34-34 0-18 16-34 34-34h79c14 0 27-6 36-16 10-10 14-23 13-37z m708-218h-693c-19 0-34-14-36-33l-16-196c-2-18 1-37 7-54 6-17 15-33 27-47 13-13 28-24 44-31 17-8 35-11 54-11h502c68 0 127 55 132 123l15 211c1 5 0 10-2 14s-4 9-7 13c-3 4-7 7-12 8-5 2-10 3-15 3z" horiz-adv-x="1000" />

<glyph glyph-name="logout" unicode="&#xe812;" d="M980 350c0-54 0-107 0-161-1-47-5-93-19-138-27-90-88-145-178-167-52-13-104-16-157-15-42 2-84 6-125 18-93 28-148 90-170 183-5 23-8 46-11 69-1 15 10 28 24 33 15 4 32 0 39-13 5-8 7-18 9-27 3-28 9-56 20-83 21-51 61-81 113-95 28-8 56-12 84-13 48-2 97-2 144 8 27 6 53 15 77 31 34 23 54 57 65 97 8 30 13 61 13 92 1 121 1 242 0 362 0 32-5 64-14 95-18 64-60 104-124 121-41 10-82 13-124 13-41 0-81-3-121-14-72-19-113-68-127-140-3-17-6-34-8-51-2-19-18-33-37-32-18 0-34 16-33 35 3 59 17 115 51 164 35 52 85 80 144 95 60 14 120 16 181 12 37-2 73-7 109-19 85-28 138-88 160-175 11-45 15-90 15-136 0-50 0-99 0-149 0 0 0 0 0 0z m-838 39c2 1 5 3 7 4 28 29 57 57 85 86 3 3 5 5 8 8 7 12 8 24 2 36-7 13-17 19-32 19-12 1-20-5-28-13-50-50-100-100-150-150-2-1-3-3-4-4-14-16-13-35 1-50 3-3 5-5 8-8 49-49 98-97 146-146 10-10 21-15 35-12 13 3 22 11 26 25 4 13 1 26-10 36-29 29-59 59-88 89-2 1-4 3-6 6 5 0 8 0 11 0 159 0 319 0 479 0 3 0 7 0 11 0 14 1 25 9 30 22 5 14 3 26-7 38-9 9-20 11-32 11-161 0-321 0-482 0-3 0-6 0-8 0-1 1-1 2-2 3z" horiz-adv-x="1000" />

<glyph glyph-name="cancel-circle" unicode="&#xe813;" d="M501 830c264-1 480-217 479-480-1-266-216-477-475-480-266-3-486 214-485 481 1 264 217 480 481 479z m-430-480c0-234 193-428 427-429 236 0 430 193 431 427 0 237-193 430-429 431-235 0-428-194-429-429z m471 6c33 33 66 66 100 99 2 2 4 4 6 6 9 11 8 26-1 36-10 9-25 10-35 1-3-2-5-5-8-7-34-35-68-70-105-107-2 4-3 6-5 8-34 34-68 68-102 103-8 7-16 11-26 9-20-5-27-29-12-44 24-25 49-49 74-74 12-12 24-24 37-37-3-2-5-3-7-5-33-33-66-66-99-99-3-2-5-5-7-8-8-9-8-20-2-30 10-14 28-15 41-2 34 34 69 68 103 103 2 2 4 3 7 6 2-2 3-5 5-7 34-34 68-68 102-102 7-7 15-11 26-9 10 3 16 9 19 19 3 10 0 19-8 26-34 34-68 68-102 102-2 2-5 4-9 7 4 3 6 4 8 6z" horiz-adv-x="1000" />

<glyph glyph-name="discountcircle" unicode="&#xe814;" d="M500-140c-258-3-489 207-490 489-1 272 219 488 485 491 270 3 494-214 495-489 1-281-230-494-490-491z m0 911c-233-1-419-188-421-417-2-236 188-421 413-425 235-5 428 184 429 419 1 234-188 423-421 423z m-107-577c88 88 177 177 265 265 2 2 5 4 6 7 8 11 10 24 4 36-7 12-17 19-31 19-12 0-21-6-28-14-89-88-178-177-267-266-2-3-5-6-7-9-8-11-8-23-2-35 6-12 16-18 33-18 10-1 19 6 27 15z m267 41c1 25-19 46-45 47-25 1-47-20-47-45-1-26 19-46 46-47 25 0 45 19 46 45z m-320 229c0-26 21-47 46-46 26 0 46 20 46 46 1 25-20 45-46 45-26 0-46-20-46-45z" horiz-adv-x="1000" />

<glyph glyph-name="search" unicode="&#xe815;" d="M871-115l-293 306c-26-22-56-39-90-52-34-13-70-19-108-19-95 0-176 34-241 103-66 69-99 153-99 252s33 183 99 252c66 69 146 103 241 103 95 0 175-34 241-103 66-69 99-153 99-252 0-40-7-78-19-113-12-36-28-67-49-95l294-307c9-10 14-22 14-37 0-14-5-27-16-38-9-10-22-15-36-15s-27 5-37 15z m-491 344c65 0 121 24 166 72 46 48 69 106 69 174s-23 126-69 174c-45 48-101 72-166 72s-121-24-167-72c-45-48-68-106-68-174s23-126 68-174c46-48 102-72 167-72z" horiz-adv-x="1000" />

<glyph glyph-name="rectangle" unicode="&#xe816;" d="M980 350c0-67 0-133 0-200 0-50-11-99-37-142-43-72-105-118-188-133-18-4-37-5-55-5-136 0-272 0-408 0-131 0-244 96-267 225-3 17-5 34-5 51 0 136 0 272 0 408 0 123 80 230 196 265 26 7 53 11 80 11 136 0 272 0 408 0 126 0 235-84 267-204 6-25 9-50 9-76 0-66 0-133 0-200z m-480-342c67 0 134 0 201 0 7 0 14 0 20 1 70 8 121 65 121 135 0 137 0 274 0 411 0 23-5 45-16 65-27 48-70 72-125 72-133 1-267 0-400 0-9 0-18 0-27-2-66-9-116-66-116-133 0-138 0-276 0-414 0-24 6-48 19-69 28-44 68-66 120-66 67 0 135 0 203 0z" horiz-adv-x="1000" />

<glyph glyph-name="star" unicode="&#xe817;" d="M179 17c0 24 6 48 11 72 7 38 15 75 22 112 3 15-2 28-13 38-37 32-74 63-112 94-16 15-31 30-43 49-15 25-23 51-16 80 5 25 19 44 40 58 25 17 53 26 83 29 28 3 55 6 83 9 17 2 34 3 51 6 13 2 24 9 30 21 22 45 44 90 65 134 11 23 25 42 45 58 41 33 95 30 136-6 18-16 31-35 43-57 19-36 39-72 59-108 6-11 17-18 29-20 56-7 112-14 168-21 26-4 51-13 73-29 38-27 52-74 33-122-9-22-23-41-39-58-37-38-74-76-110-114-11-11-15-25-13-41 8-45 17-91 24-137 5-32 1-62-15-91-19-33-48-48-84-50-28-1-53 6-78 18-43 21-86 41-129 62-14 7-28 6-42-3-37-23-74-47-111-70-25-16-52-26-81-29-36-5-82 11-100 62-6 17-9 34-9 54z" horiz-adv-x="1000" />

<glyph glyph-name="star-outline" unicode="&#xe818;" d="M169 3c0 25 5 50 10 75 8 39 16 77 23 116 3 17-2 32-15 43-39 32-77 64-115 96-22 19-41 41-53 69-22 50-3 103 45 130 26 14 54 21 84 24 29 3 59 7 88 10 13 2 26 3 39 4 17 2 29 10 36 26 22 44 43 88 64 132 12 25 28 46 49 63 41 33 96 31 137-3 19-17 34-38 46-60 20-37 40-73 60-110 8-15 21-23 38-25 28-3 55-7 83-10 29-4 58-7 86-11 24-4 46-11 66-24 46-28 62-82 40-134-9-21-22-39-38-55-39-40-78-80-116-120-11-11-15-24-12-39 8-47 16-94 24-141 4-26 3-52-6-77-15-47-63-78-112-72-26 2-49 10-72 21-43 20-85 41-128 61-14 7-28 6-41-2-38-24-76-48-113-72-28-17-57-29-91-32-43-4-83 21-98 63-6 17-8 35-8 54z m88 4c2-9 2-16 4-23 3-9 6-10 14-9 17 2 31 10 45 19 36 22 71 45 106 67 46 30 93 33 142 9 41-20 82-40 123-59 12-5 24-9 36-12 15-2 20 2 22 16 2 8 2 17 1 25-8 45-15 89-23 134-9 49 2 92 37 128 31 31 61 63 92 94 10 11 21 22 31 34 5 6 9 14 12 22 3 8 2 13-6 18-6 4-13 8-19 9-17 3-34 6-50 8-45 6-90 11-135 17-44 6-77 28-99 66-15 24-27 49-41 74-11 20-23 40-34 60-5 8-12 15-21 19-4 2-9 3-13 0-4-4-9-7-13-12-5-6-9-13-12-20-22-44-43-89-65-134-18-38-49-63-90-72-30-7-60-8-91-12-24-3-49-5-74-9-10-2-20-6-30-11-7-3-8-6-4-14 2-5 5-10 8-14 10-10 19-20 30-29 35-30 71-59 106-90 37-32 53-73 46-121-7-40-16-80-24-120-4-20-7-40-11-58z" horiz-adv-x="1000" />

<glyph glyph-name="call" unicode="&#xe819;" d="M753-130c-67 1-123 16-176 40-70 31-134 73-194 121-100 80-186 171-257 277-36 54-67 111-87 173-13 40-20 82-18 124 3 82 37 148 104 197 29 21 62 31 99 27 36-3 63-21 84-50 32-46 65-92 97-138 14-18 26-38 31-61 5-23 1-44-10-64-10-19-24-34-39-49-7-7-12-14-19-20-6-4-6-9-2-14 10-12 18-26 28-38 49-58 102-112 162-159 9-8 20-14 29-20 4-3 7-2 11 1 16 16 31 32 48 46 21 18 46 28 74 25 15-1 29-5 41-12 19-12 39-25 57-38 39-27 78-55 117-82 33-24 47-56 46-95 0-38-16-71-40-100-50-62-116-90-186-91z m-5 61c46 0 90 14 126 49 20 19 37 41 43 69 5 22 3 42-18 56-48 34-96 68-144 102-9 6-18 12-28 17-12 6-24 6-36-2-5-4-11-7-16-12-14-13-28-27-41-40-19-18-43-24-66-13-18 9-35 20-51 32-63 50-119 107-171 169-15 19-31 38-40 61-9 24-6 45 12 64 12 12 24 24 35 37 8 9 14 18 20 27 5 7 6 16 2 24-5 10-9 21-16 30-34 50-69 98-104 147-10 14-23 20-38 21-21 2-39-5-56-17-48-34-74-81-79-139-3-47 6-91 23-135 23-61 56-117 95-170 64-87 138-164 222-231 57-45 117-85 185-114 43-19 89-32 141-32z m82 740c0-57 0-114 0-171 0-3 0-5 1-8 1-17 14-28 32-28 15 0 28 13 28 30 0 72 0 144 0 216 0 17-13 30-30 30-62 0-123 0-185 0-11 0-22 0-33 0-13 0-25-10-28-23-4-20 10-37 30-37 59 0 118 0 177 0 3 0 5 0 8 0 0-4 0-6 0-9z" horiz-adv-x="1000" />

<glyph glyph-name="delete" unicode="&#xe81a;" d="M500-130c-49 0-98 0-147 0-29 0-57 3-84 14-43 16-67 47-74 92-4 28-5 57-7 85-3 30-4 59-6 89-3 36-5 72-7 108-2 29-4 58-6 88-2 36-4 72-7 108 0 8-1 15-1 23 0 19 13 33 33 34 17 1 33-13 34-31 4-53 7-106 10-159 3-43 6-85 9-128 3-49 6-97 9-145 1-19 3-37 5-55 5-32 13-45 51-52 15-3 31-3 47-3 94-1 188-1 282 0 18 0 37 1 54 5 23 4 39 16 43 40 1 6 2 13 3 19 2 38 5 75 7 113 3 35 5 71 8 107 2 42 5 85 8 128 2 36 4 71 7 106 0 9 1 17 1 25 2 18 17 31 35 30 18 0 33-14 33-32-1-17-2-33-3-49-3-45-6-90-9-135-2-42-5-84-8-126-3-42-5-85-8-128-2-24-4-49-8-73-10-48-40-76-86-89-24-6-47-9-71-9-49 0-98 0-147 0z m436 746c1 18-13 34-31 36-40 4-80 7-120 11-30 2-59 3-89 5-4 0-7 1-8 7-3 24-7 48-12 73-5 24-15 46-37 61-23 15-49 21-77 21-38 0-76 0-115 0-15 0-31-1-46-4-40-9-68-32-76-73-5-26-9-51-13-76-1-6-3-7-8-7-16-1-33-1-49-3-53-5-106-10-159-15-20-1-34-19-31-38 3-19 18-30 38-29 41 4 83 8 124 12 67 6 134 10 201 10 74-1 147-2 221-4 46-2 92-5 137-9 38-2 75-6 114-9 19-1 34 12 36 31z m-556 59c2 13 4 27 7 40 1 8 3 16 4 24 3 13 10 19 22 21 9 1 19 2 28 2 39 1 79 1 118 0 11 0 23-2 34-4 8-2 13-7 15-16 3-15 6-31 9-47 1-7 2-15 3-22-80 0-160 1-240 2z m232-381c19 0 34 16 33 34 0 18-14 33-33 33-75 1-149 1-224 0-19 0-33-15-33-33-1-18 14-34 33-34 37 0 74 0 112 0 37 0 75 0 112 0z m-112-178c25 0 50-1 75 0 18 0 33 15 33 33 0 18-14 34-33 34-50 0-100 0-151 0-18 0-33-16-32-34 0-18 14-33 32-33 26-1 51 0 76 0 0 0 0 0 0 0z" horiz-adv-x="1000" />
</font>
</defs>
</svg>
